<?xml version="1.0" standalone="no"?>
<!DOCTYPE svg PUBLIC "-//W3C//DTD SVG 20010904//EN"
 "http://www.w3.org/TR/2001/REC-SVG-20010904/DTD/svg10.dtd">
<svg version="1.0" xmlns="http://www.w3.org/2000/svg"
 width="512.000000pt" height="512.000000pt" viewBox="0 0 512.000000 512.000000"
 preserveAspectRatio="xMidYMid meet">
<metadata>
Created by potrace 1.11, written by Peter Selinger 2001-2013
</metadata>
<g transform="translate(0.000000,512.000000) scale(0.100000,-0.100000)"
fill="#000000" stroke="none">
<path d="M2001 3052 c-129 -345 -236 -633 -239 -639 -3 -10 40 -13 197 -13
111 0 201 -2 201 -4 0 -2 -90 -252 -201 -556 -110 -303 -199 -553 -197 -555 2
-3 400 392 883 875 l880 880 -278 0 c-152 0 -277 4 -277 8 0 5 52 147 115 315
63 169 115 309 115 312 0 3 -217 5 -482 5 l-483 0 -234 -628z"/>
</g>
</svg>
